<svg aria-hidden="true" style="position: absolute; width: 0; height: 0; overflow: hidden;" version="1.1" xmlns="http://www.w3.org/2000/svg" xmlns:xlink="http://www.w3.org/1999/xlink">
<defs>
<symbol id="icon-facebook-1"  fill="#fff" viewBox="0 0 32 32">
<path  d="M21.329 5.313h2.921v-5.088c-0.504-0.069-2.237-0.225-4.256-0.225-4.212 0-7.097 2.649-7.097 7.519v4.481h-4.648v5.688h4.648v14.312h5.699v-14.311h4.46l0.708-5.688h-5.169v-3.919c0.001-1.644 0.444-2.769 2.735-2.769v0z"></path>
</symbol>
<symbol id="icon-instagram-2" fill="#fff" viewBox="0 0 32 32">
<path d="M31.969 9.408c-0.075-1.7-0.35-2.869-0.744-3.882-0.406-1.075-1.032-2.038-1.851-2.838-0.8-0.813-1.769-1.444-2.832-1.844-1.019-0.394-2.182-0.669-3.882-0.744-1.713-0.081-2.257-0.1-6.601-0.1s-4.888 0.019-6.595 0.094c-1.7 0.075-2.869 0.35-3.882 0.744-1.075 0.406-2.038 1.031-2.838 1.85-0.813 0.8-1.444 1.769-1.844 2.832-0.394 1.019-0.669 2.182-0.744 3.882-0.081 1.713-0.1 2.257-0.1 6.601s0.019 4.888 0.094 6.595c0.075 1.7 0.35 2.869 0.744 3.882 0.406 1.075 1.038 2.038 1.85 2.838 0.8 0.813 1.769 1.444 2.832 1.844 1.019 0.394 2.182 0.669 3.882 0.744 1.706 0.075 2.25 0.094 6.595 0.094s4.888-0.019 6.595-0.094c1.7-0.075 2.869-0.35 3.882-0.744 2.151-0.832 3.851-2.532 4.682-4.682 0.394-1.019 0.669-2.182 0.744-3.882 0.075-1.707 0.094-2.251 0.094-6.595s-0.006-4.888-0.081-6.595zM29.087 22.473c-0.069 1.563-0.331 2.407-0.55 2.969-0.538 1.394-1.644 2.5-3.038 3.038-0.563 0.219-1.413 0.481-2.969 0.55-1.688 0.075-2.194 0.094-6.464 0.094s-4.782-0.019-6.464-0.094c-1.563-0.069-2.407-0.331-2.969-0.55-0.694-0.256-1.325-0.663-1.838-1.194-0.531-0.519-0.938-1.144-1.194-1.838-0.219-0.563-0.481-1.413-0.55-2.969-0.075-1.688-0.094-2.194-0.094-6.464s0.019-4.782 0.094-6.464c0.069-1.563 0.331-2.407 0.55-2.969 0.256-0.694 0.663-1.325 1.2-1.838 0.519-0.531 1.144-0.938 1.838-1.194 0.563-0.219 1.413-0.481 2.969-0.55 1.688-0.075 2.194-0.094 6.464-0.094 4.276 0 4.782 0.019 6.464 0.094 1.563 0.069 2.407 0.331 2.969 0.55 0.694 0.256 1.325 0.662 1.838 1.194 0.531 0.519 0.938 1.144 1.194 1.838 0.219 0.563 0.481 1.413 0.55 2.969 0.075 1.688 0.094 2.194 0.094 6.464s-0.019 4.77-0.094 6.458z"></path>
<path d="M16.059 7.783c-4.538 0-8.22 3.682-8.22 8.22s3.682 8.22 8.22 8.22c4.539 0 8.22-3.682 8.22-8.22s-3.682-8.22-8.22-8.22zM16.059 21.335c-2.944 0-5.332-2.388-5.332-5.332s2.388-5.332 5.332-5.332c2.944 0 5.332 2.388 5.332 5.332s-2.388 5.332-5.332 5.332v0z"></path>
<path d="M26.524 7.458c0 1.060-0.859 1.919-1.919 1.919s-1.919-0.859-1.919-1.919c0-1.060 0.859-1.919 1.919-1.919s1.919 0.859 1.919 1.919v0z"></path>
</symbol>
<symbol id="icon-icons8-telegram-app"   viewBox="0 0 32 32">
<path fill="#29b6f6" style="fill: var(--color2, #29b6f6)" d="M16 2.667c-7.364 0-13.333 5.97-13.333 13.333s5.97 13.333 13.333 13.333v0c7.364 0 13.333-5.97 13.333-13.333s-5.97-13.333-13.333-13.333v0z"></path>
<path fill="#fff" style="fill: var(--color3, #fff)" d="M22.633 10l-2.497 12.751c0 0-0.107 0.583-0.83 0.583-0.384 0-0.582-0.183-0.582-0.183l-5.409-4.489-2.647-1.334-3.397-0.903c0 0-0.605-0.175-0.605-0.675 0-0.417 0.622-0.615 0.622-0.615l14.211-5.645c-0.001-0.001 0.434-0.157 0.751-0.156 0.195 0 0.417 0.083 0.417 0.333 0 0.167-0.033 0.333-0.033 0.333z"></path>
<path fill="#b0bec5" style="fill: var(--color4, #b0bec5)" d="M15.333 20.337l-2.284 2.249c0 0-0.099 0.077-0.232 0.080-0.046 0.001-0.095-0.006-0.146-0.029l0.643-3.977 2.019 1.676z"></path>
<path fill="#cfd8dc" style="fill: var(--color5, #cfd8dc)" d="M19.931 12.131c-0.113-0.147-0.321-0.173-0.467-0.062l-8.797 5.265c0 0 1.404 3.928 1.618 4.608s0.387 0.697 0.387 0.697l0.643-3.977 6.555-6.064c0.147-0.111 0.174-0.32 0.063-0.467z"></path>
</symbol>
<symbol id="icon-telegram"  viewBox="0 0 32 32">
<path  d="M10.333 16.716l14.41-8.875c0.259-0.159 0.525 0.191 0.303 0.397l-11.893 11.055c-0.418 0.389-0.688 0.91-0.764 1.475l-0.405 3.002c-0.054 0.401-0.617 0.441-0.727 0.053l-1.558-5.475c-0.178-0.625 0.082-1.291 0.634-1.632z"></path>
<path fill="#dedee0" style="fill: var(--color2, #dedee0)" d="M0.565 15.429l7.373 2.752 2.854 9.178c0.183 0.588 0.901 0.805 1.379 0.415l4.11-3.351c0.431-0.351 1.044-0.369 1.495-0.042l7.413 5.382c0.51 0.371 1.233 0.091 1.361-0.525l5.43-26.122c0.14-0.674-0.522-1.236-1.164-0.988l-30.261 11.674c-0.747 0.288-0.74 1.345 0.009 1.626zM10.333 16.716l14.41-8.875c0.259-0.159 0.525 0.191 0.303 0.397l-11.893 11.055c-0.418 0.389-0.688 0.91-0.764 1.475l-0.405 3.002c-0.054 0.401-0.617 0.441-0.727 0.053l-1.558-5.475c-0.178-0.625 0.082-1.291 0.634-1.632z"></path>
</symbol>

<symbol id="icon-telephone"  viewBox="0 0 32 32">
<path d="M21.809 24.308c0.707 0 1.28-0.573 1.28-1.28v-16.608c0-0.707-0.573-1.28-1.28-1.28h-11.552c-0.707 0-1.28 0.573-1.28 1.28v16.608c0 0.707 0.573 1.28 1.28 1.28h11.552zM21.809 25.588h-11.552c-1.414 0-2.56-1.146-2.56-2.56v-16.608c0-1.414 1.146-2.56 2.56-2.56h11.552c1.414 0 2.56 1.146 2.56 2.56v16.608c0 1.414-1.146 2.56-2.56 2.56zM13.493 3.236h5.080c0.353 0 0.64-0.287 0.64-0.64s-0.287-0.64-0.64-0.64h-5.080c-0.353 0-0.64 0.287-0.64 0.64s0.287 0.64 0.64 0.64z"></path>
<path d="M23.746 30.708c1.414 0 2.56-1.146 2.56-2.56v-24.308c0-1.414-1.146-2.56-2.56-2.56h-15.426c-1.414 0-2.56 1.146-2.56 2.56v24.308c0 1.414 1.146 2.56 2.56 2.56h15.426zM23.746 31.988h-15.426c-2.121 0-3.84-1.719-3.84-3.84v-24.308c0-2.121 1.719-3.84 3.84-3.84h15.426c2.121 0 3.84 1.719 3.84 3.84v24.308c0 2.121-1.719 3.84-3.84 3.84z"></path>
<path d="M16.673 28.148c0-0.353-0.287-0.64-0.64-0.64s-0.64 0.287-0.64 0.64c0 0.353 0.287 0.64 0.64 0.64s0.64-0.287 0.64-0.64zM17.953 28.148c0 1.060-0.86 1.92-1.92 1.92s-1.92-0.86-1.92-1.92 0.86-1.92 1.92-1.92 1.92 0.86 1.92 1.92z"></path>
</symbol>

<symbol id="icon-logo" viewBox="0 0 42 32">
<path d="M16.999 0.106c-1.785 0.274-3.303 0.628-4.619 1.078-4.147 1.417-7.112 3.434-9.664 6.574-0.772 0.951-1.804 2.866-2.218 4.118-0.398 1.203-0.611 2.25-0.436 2.142 0.037-0.023 0.067 0.003 0.067 0.057s-0.031 0.114-0.069 0.133c-0.038 0.019-0.031 0.027 0.015 0.017s0.125-0.195 0.175-0.413c0.105-0.457 0.382-1.462 0.525-1.903 0.147-0.454 0.686-1.646 0.984-2.176 1.102-1.957 2.826-3.859 4.797-5.291 2.773-2.015 6.463-3.47 10.171-4.013 0.384-0.056 0.783-0.102 0.887-0.102s0.189-0.028 0.189-0.061c0-0.034 0.017-0.105 0.037-0.159 0.046-0.12-0.071-0.12-0.841-0.002zM23.21 0.031c-0.020 0.021-0.022 0.096-0.003 0.167 0.025 0.096 0.093 0.13 0.261 0.13 0.341 0 1.456 0.178 2.488 0.396 4.755 1.008 8.852 3.316 11.581 6.523 1.052 1.236 2.167 3.144 2.622 4.486 0.089 0.262 0.153 0.35 0.268 0.367 0.13 0.019 0.144 0 0.106-0.134-0.197-0.683-0.862-2.145-1.28-2.815-0.888-1.422-1.272-1.905-2.467-3.103-2.071-2.077-4.724-3.705-7.741-4.752-1.55-0.538-3.323-0.962-5.014-1.2-0.821-0.116-0.771-0.112-0.818-0.064zM24.53 4.087c-1.021 0.050-1.825 0.187-2.727 0.465l-0.651 0.2-0.888-0.176c-1.98-0.393-2.783-0.494-3.926-0.496-2.114-0.004-3.957 0.422-5.933 1.372-0.864 0.415-1.418 0.821-2.109 1.548-0.743 0.781-0.885 0.952-1.357 1.64-0.78 1.135-1.279 2.198-1.52 3.238-0.164 0.706-0.229 2.259-0.14 3.331 0.208 2.508 1.114 4.396 3.061 6.378 0.675 0.687 1.080 0.973 2.154 1.518 2.364 1.2 5.394 1.476 8.715 0.794 0.975-0.2 1.638-0.349 1.662-0.372 0.012-0.012 0.276 0.065 0.587 0.17 1.377 0.465 3.035 0.65 4.793 0.534 0.578-0.038 1.090-0.082 1.138-0.096s0.176-0.047 0.286-0.071c0.193-0.043 0.185-0.051-0.284-0.298-0.266-0.14-0.531-0.294-0.589-0.342-0.080-0.066-0.445-0.090-1.457-0.094-1.206-0.005-1.408-0.023-1.886-0.162-0.295-0.086-0.561-0.18-0.592-0.209s0.105-0.105 0.301-0.169 0.377-0.135 0.402-0.158c0.024-0.023-0.003-0.268-0.062-0.544-0.084-0.396-0.107-0.967-0.111-2.711l-0.005-2.209 0.187-0.38c0.138-0.282 0.26-0.423 0.469-0.545 0.386-0.225 1.078-0.43 1.734-0.512 0.301-0.038 0.572-0.107 0.603-0.153s0.047-0.204 0.038-0.352l-0.017-0.268-0.703-0.019c-0.387-0.010-1.486 0.005-2.444 0.034-1.825 0.055-5.022 0.006-5.106-0.078-0.068-0.069-0.030-1.9 0.053-2.548 0.086-0.664 0.293-1.58 0.503-2.226 0.352-1.078 1.167-2.47 1.84-3.142l0.347-0.347 0.262 0.303c0.534 0.617 1.059 1.604 1.265 2.38 0.1 0.375 0.238 0.521 0.493 0.52 0.399-0.002 0.41-0.036 0.285-0.88-0.272-1.837-0.451-3.241-0.433-3.394 0.016-0.134 0.088-0.188 0.386-0.289 0.47-0.159 1.030-0.26 1.737-0.314l0.564-0.043 0.117-0.335c0.065-0.184 0.12-0.369 0.123-0.411 0.008-0.114-0.21-0.129-1.166-0.082zM28.223 4.825c-0.215 0.749-0.227 0.686 0.168 0.892 1.081 0.563 2.148 1.714 2.871 3.097 0.159 0.304 0.314 0.552 0.346 0.552 0.077 0 1.101-1.026 1.419-1.423l0.255-0.318-0.319-0.373c-0.601-0.703-1.668-1.54-2.576-2.019-0.575-0.303-1.459-0.654-1.818-0.721l-0.244-0.046-0.103 0.358zM17.623 5.079c0.754 0.134 1.483 0.348 1.682 0.494 0.104 0.076 0.064 0.123-0.375 0.449-1.657 1.231-2.901 3.045-3.497 5.101-0.306 1.056-0.395 1.93-0.356 3.499 0.048 1.917 0.275 2.928 0.984 4.376 0.678 1.386 1.828 2.706 3.098 3.557 0.137 0.092 0.25 0.186 0.25 0.209 0.001 0.064-0.706 0.308-1.271 0.44-0.749 0.175-3.178 0.171-3.883-0.006-1.097-0.275-2.075-0.817-2.98-1.652-0.185-0.17-0.369-0.322-0.409-0.337-0.080-0.030-1.49-2.040-1.546-2.203-0.019-0.055-0.149-0.392-0.289-0.748-0.671-1.706-0.88-3.771-0.593-5.846 0.192-1.389 0.669-2.66 1.42-3.782 1.024-1.531 1.775-2.268 2.959-2.907 0.532-0.287 1.547-0.639 1.864-0.646 0.116-0.003 0.272-0.031 0.345-0.062 0.257-0.11 1.839-0.072 2.599 0.064zM33.969 10.759c-0.405 0.396-0.941 0.865-1.192 1.044l-0.455 0.325 0.053 0.477c0.029 0.262 0.053 1.057 0.053 1.766v1.289l0.234-0.041c1.357-0.235 2.6-0.551 2.795-0.711 0.206-0.168-0.025-2.699-0.347-3.804-0.154-0.529-0.353-1.071-0.39-1.066-0.009 0.001-0.347 0.326-0.753 0.721zM19.635 16.264c0.429 0.161 0.769 0.498 0.849 0.843 0.067 0.289 0.085 3.854 0.021 4.094-0.039 0.146-0.051 0.142-0.273-0.118-0.58-0.677-1.248-1.866-1.486-2.646-0.045-0.147-0.109-0.328-0.142-0.402-0.094-0.21-0.317-1.23-0.369-1.682l-0.046-0.41 0.548 0.095c0.301 0.052 0.706 0.154 0.898 0.226zM40.637 18.269c-0.333 1.672-0.811 2.871-1.801 4.52-1.127 1.878-3.151 3.901-5.268 5.266-2.621 1.69-6.090 2.988-9.105 3.406-0.769 0.107-0.837 0.129-0.837 0.275 0 0.155 0.056 0.151 1.562-0.117 5.952-1.060 11.119-4.272 13.845-8.606 0.571-0.907 0.859-1.477 1.231-2.429 0.315-0.807 0.66-2.056 0.735-2.666 0.044-0.355 0.037-0.385-0.084-0.385-0.115 0-0.152 0.097-0.279 0.736zM34.137 18.010c-0.313 0.068-0.885 0.169-1.272 0.226-1.104 0.162-1.041 0.136-1.172 0.49-0.146 0.395-0.654 1.356-0.928 1.754-0.114 0.166-0.411 0.532-0.661 0.814s-0.453 0.529-0.453 0.549c0 0.043 1.093 0.394 1.583 0.508 0.361 0.084 0.357 0.085 0.717-0.231 0.042-0.037 0.263-0.227 0.491-0.422 0.467-0.4 1.269-1.369 1.672-2.022 0.253-0.41 0.825-1.622 0.825-1.749 0-0.077-0.122-0.064-0.803 0.083zM0.263 19.444c0 0.11 0.424 1.286 0.639 1.772 0.535 1.212 1.339 2.505 2.184 3.515 0.744 0.889 1.915 2.014 2.767 2.659 0.037 0.028 0.157 0.121 0.268 0.208s0.397 0.292 0.636 0.457c2.985 2.056 6.709 3.396 10.678 3.842 1.117 0.126 1.105 0.126 1.105-0.035 0-0.074-0.023-0.138-0.050-0.142-0.085-0.014-0.298-0.038-0.787-0.087-1.309-0.131-3.19-0.486-4.318-0.815-5.604-1.633-9.893-4.938-11.982-9.232-0.429-0.881-0.805-1.852-0.805-2.076 0-0.062-0.064-0.1-0.167-0.1-0.092 0-0.167 0.016-0.167 0.035z"></path>
<path d="M19.935 30.259v-0.076l0.203-0.199c0.019-0.020 0.036-0.037 0.049-0.052s0.023-0.030 0.029-0.044c0.006-0.014 0.010-0.029 0.010-0.046 0-0.018-0.004-0.034-0.013-0.047s-0.020-0.024-0.035-0.031c-0.015-0.007-0.031-0.011-0.050-0.011s-0.036 0.004-0.051 0.012c-0.014 0.008-0.026 0.019-0.034 0.033s-0.012 0.032-0.012 0.052h-0.101c0-0.037 0.009-0.069 0.025-0.097s0.040-0.049 0.070-0.064c0.030-0.015 0.064-0.023 0.103-0.023s0.074 0.007 0.103 0.022c0.030 0.015 0.053 0.035 0.069 0.060s0.025 0.055 0.025 0.087c0 0.022-0.004 0.043-0.013 0.064s-0.023 0.044-0.044 0.070c-0.021 0.026-0.050 0.057-0.088 0.093l-0.101 0.102v0.004h0.255v0.088h-0.401zM20.65 30.271c-0.047 0-0.087-0.012-0.121-0.036s-0.059-0.058-0.077-0.104c-0.018-0.045-0.027-0.1-0.027-0.163s0.009-0.118 0.027-0.163c0.018-0.045 0.044-0.079 0.077-0.103s0.074-0.035 0.121-0.035c0.047 0 0.087 0.012 0.121 0.035s0.059 0.058 0.077 0.103c0.018 0.045 0.027 0.099 0.027 0.163s-0.009 0.119-0.027 0.164c-0.018 0.045-0.044 0.079-0.077 0.103s-0.074 0.036-0.121 0.036zM20.65 30.181c0.037 0 0.065-0.018 0.086-0.054s0.032-0.089 0.032-0.159c0-0.046-0.005-0.085-0.015-0.117s-0.023-0.055-0.041-0.071c-0.018-0.016-0.039-0.024-0.063-0.024-0.036 0-0.065 0.018-0.086 0.054s-0.032 0.089-0.032 0.158c-0 0.047 0.005 0.086 0.014 0.118s0.023 0.056 0.041 0.072c0.018 0.016 0.039 0.024 0.063 0.024zM21.207 29.675v0.584h-0.106v-0.481h-0.003l-0.137 0.087v-0.097l0.145-0.093h0.101zM21.558 29.667c0.028 0 0.055 0.005 0.082 0.015s0.051 0.025 0.072 0.047c0.021 0.021 0.038 0.050 0.051 0.086s0.019 0.081 0.019 0.134c0 0.050-0.005 0.095-0.016 0.135s-0.026 0.073-0.046 0.1c-0.020 0.027-0.044 0.048-0.072 0.062s-0.060 0.021-0.095 0.021c-0.037 0-0.070-0.007-0.098-0.022s-0.051-0.034-0.069-0.059c-0.018-0.025-0.028-0.054-0.032-0.086h0.104c0.005 0.023 0.016 0.042 0.032 0.055s0.037 0.020 0.063 0.020c0.041 0 0.072-0.018 0.094-0.053s0.033-0.084 0.033-0.147h-0.004c-0.009 0.017-0.021 0.031-0.036 0.043s-0.032 0.021-0.050 0.028c-0.019 0.006-0.038 0.010-0.059 0.010-0.034 0-0.065-0.008-0.092-0.025s-0.049-0.039-0.065-0.067c-0.016-0.029-0.024-0.061-0.024-0.098 0-0.038 0.009-0.072 0.026-0.102s0.042-0.054 0.074-0.072c0.032-0.018 0.068-0.026 0.111-0.026zM21.559 29.753c-0.021 0-0.039 0.005-0.056 0.015s-0.029 0.023-0.039 0.041c-0.009 0.017-0.014 0.036-0.014 0.057s0.005 0.040 0.014 0.056c0.009 0.017 0.022 0.030 0.038 0.040s0.035 0.015 0.055 0.015c0.015 0 0.030-0.003 0.043-0.009s0.025-0.014 0.035-0.025c0.010-0.011 0.018-0.023 0.023-0.036s0.008-0.028 0.008-0.043c0-0.020-0.005-0.038-0.014-0.055s-0.022-0.031-0.039-0.041c-0.016-0.010-0.035-0.015-0.056-0.015z"></path>
<path d="M12.584 25.934c-0.032-0.117-0.077-0.198-0.135-0.241-0.056-0.043-0.13-0.065-0.222-0.065s-0.161 0.023-0.21 0.067c-0.048 0.043-0.072 0.097-0.072 0.161 0 0.104 0.054 0.192 0.161 0.263l0.381 0.248c0.167 0.109 0.251 0.239 0.251 0.388 0 0.12-0.048 0.226-0.145 0.316-0.095 0.088-0.234 0.133-0.417 0.133s-0.343-0.029-0.48-0.087c0.026-0.132 0.039-0.25 0.039-0.354l0.065-0.029c0.024 0.132 0.062 0.223 0.113 0.272s0.131 0.075 0.239 0.075c0.109 0 0.192-0.026 0.248-0.080 0.058-0.053 0.087-0.116 0.087-0.188 0-0.098-0.052-0.181-0.157-0.248l-0.386-0.253c-0.148-0.096-0.222-0.22-0.222-0.371 0-0.117 0.046-0.218 0.137-0.304 0.092-0.087 0.211-0.13 0.359-0.13 0.048 0 0.101 0.006 0.159 0.019 0.059 0.011 0.104 0.017 0.135 0.017s0.066-0.005 0.106-0.014v0.036c0 0.117 0.010 0.231 0.029 0.34l-0.065 0.029zM12.91 25.515c0.132 0.010 0.371 0.014 0.718 0.014s0.586-0.005 0.718-0.014v0.036c0 0.127 0.010 0.245 0.029 0.354l-0.065 0.029c-0.042-0.132-0.092-0.215-0.149-0.251s-0.167-0.053-0.328-0.053c-0.048 0-0.075 0.022-0.080 0.065-0.013 0.095-0.019 0.267-0.019 0.516 0 0.403 0.005 0.654 0.014 0.752l0.005 0.051c0.003 0.029 0.018 0.050 0.046 0.063 0.027 0.011 0.080 0.025 0.159 0.041l-0.007 0.070c-0.101-0.005-0.211-0.007-0.33-0.007s-0.229 0.002-0.33 0.007l-0.007-0.070c0.082-0.016 0.137-0.031 0.166-0.043s0.045-0.033 0.048-0.060c0.013-0.095 0.019-0.267 0.019-0.516 0-0.403-0.005-0.655-0.014-0.754l-0.005-0.048c-0.005-0.043-0.030-0.065-0.075-0.065-0.161 0-0.27 0.018-0.328 0.053s-0.108 0.119-0.149 0.251l-0.065-0.029c0.019-0.109 0.029-0.227 0.029-0.354v-0.036zM15.589 25.522c0.101 0.005 0.201 0.007 0.299 0.007 0.1 0 0.2-0.002 0.301-0.007l0.007 0.070c-0.079 0.016-0.131 0.031-0.157 0.043-0.026 0.011-0.039 0.031-0.041 0.060-0.008 0.174-0.017 0.47-0.027 0.889-0.005 0.188-0.059 0.339-0.164 0.453s-0.268 0.171-0.492 0.171c-0.108 0-0.199-0.009-0.275-0.026-0.074-0.016-0.14-0.046-0.198-0.089-0.114-0.085-0.173-0.246-0.176-0.482-0.006-0.403-0.012-0.709-0.017-0.916 0-0.029-0.014-0.049-0.041-0.060-0.026-0.013-0.078-0.027-0.157-0.043l0.007-0.070c0.101 0.005 0.207 0.007 0.318 0.007s0.217-0.002 0.318-0.007l0.007 0.070c-0.077 0.016-0.129 0.031-0.154 0.043-0.026 0.011-0.040 0.031-0.043 0.060-0.014 0.104-0.022 0.265-0.022 0.482 0 0.215 0 0.341 0 0.376 0.002 0.035 0.004 0.079 0.007 0.13 0.003 0.050 0.009 0.088 0.017 0.116s0.018 0.059 0.031 0.094c0.014 0.034 0.032 0.059 0.053 0.077s0.047 0.035 0.077 0.053c0.053 0.032 0.133 0.048 0.241 0.048 0.109 0 0.198-0.016 0.268-0.048 0.069-0.034 0.121-0.084 0.157-0.149 0.035-0.067 0.059-0.141 0.072-0.219s0.019-0.186 0.019-0.321c0-0.288-0.005-0.483-0.014-0.586l-0.005-0.053c-0.005-0.039-0.047-0.066-0.128-0.082-0.019-0.005-0.052-0.012-0.099-0.022l0.007-0.070zM16.649 25.529h0.429c0.186 0 0.353 0.036 0.499 0.108 0.162 0.084 0.275 0.206 0.337 0.366 0.035 0.088 0.053 0.187 0.053 0.296 0 0.259-0.080 0.47-0.239 0.634s-0.39 0.246-0.692 0.246h-0.388c-0.125 0-0.239 0.002-0.34 0.007l-0.007-0.070c0.082-0.016 0.137-0.031 0.166-0.043s0.045-0.033 0.048-0.060c0.013-0.095 0.019-0.267 0.019-0.516 0-0.403-0.005-0.655-0.014-0.754l-0.005-0.048c-0.003-0.029-0.018-0.049-0.043-0.060-0.026-0.013-0.077-0.027-0.154-0.043l0.007-0.070c0.101 0.005 0.209 0.007 0.323 0.007zM16.779 27.035c0.087 0.019 0.179 0.029 0.277 0.029s0.191-0.019 0.28-0.058c0.088-0.040 0.156-0.087 0.202-0.14 0.047-0.055 0.084-0.119 0.111-0.193 0.043-0.109 0.065-0.222 0.065-0.337 0-0.471-0.262-0.706-0.786-0.706-0.058 0-0.096 0.003-0.116 0.010-0.018 0.006-0.029 0.020-0.034 0.041-0.018 0.104-0.026 0.281-0.026 0.53 0 0.387 0.006 0.643 0.019 0.769l0.007 0.055zM18.624 25.695c-0.013 0.095-0.019 0.267-0.019 0.516 0 0.403 0.005 0.654 0.014 0.752l0.005 0.051c0.003 0.029 0.018 0.050 0.046 0.063 0.027 0.011 0.080 0.025 0.159 0.041l-0.007 0.070c-0.101-0.005-0.211-0.007-0.33-0.007s-0.229 0.002-0.33 0.007l-0.007-0.070c0.082-0.016 0.137-0.031 0.166-0.043s0.045-0.033 0.048-0.060c0.013-0.095 0.019-0.267 0.019-0.516 0-0.403-0.005-0.655-0.014-0.754l-0.005-0.048c-0.003-0.029-0.018-0.049-0.043-0.060-0.026-0.013-0.077-0.027-0.154-0.043l0.007-0.070c0.101 0.005 0.207 0.007 0.318 0.007s0.217-0.002 0.318-0.007l0.007 0.070c-0.077 0.016-0.129 0.031-0.154 0.043-0.026 0.011-0.040 0.031-0.043 0.060zM19.867 25.613c-0.093 0-0.176 0.018-0.248 0.055s-0.129 0.083-0.171 0.137c-0.042 0.055-0.076 0.116-0.101 0.186-0.045 0.116-0.067 0.228-0.067 0.337s0.010 0.208 0.029 0.296c0.019 0.087 0.050 0.167 0.092 0.241s0.1 0.132 0.176 0.174c0.076 0.042 0.16 0.063 0.253 0.063 0.095 0 0.177-0.016 0.246-0.048s0.125-0.072 0.166-0.12c0.043-0.050 0.080-0.106 0.108-0.169 0.051-0.111 0.079-0.223 0.082-0.337 0-0.543-0.188-0.815-0.564-0.815zM20.482 26.929c-0.067 0.088-0.159 0.159-0.275 0.212-0.116 0.051-0.25 0.077-0.402 0.077-0.264 0-0.459-0.071-0.588-0.212-0.127-0.143-0.19-0.337-0.19-0.583 0-0.247 0.067-0.459 0.202-0.636 0.067-0.088 0.159-0.158 0.275-0.21 0.116-0.053 0.25-0.080 0.402-0.080 0.264 0 0.459 0.071 0.586 0.212 0.129 0.141 0.193 0.335 0.193 0.581s-0.067 0.459-0.202 0.639zM21.461 25.515c0.132 0.010 0.371 0.014 0.718 0.014s0.586-0.005 0.718-0.014v0.036c0 0.127 0.010 0.245 0.029 0.354l-0.065 0.029c-0.042-0.132-0.092-0.215-0.149-0.251s-0.167-0.053-0.328-0.053c-0.048 0-0.075 0.022-0.080 0.065-0.013 0.095-0.019 0.267-0.019 0.516 0 0.403 0.005 0.654 0.014 0.752l0.005 0.051c0.003 0.029 0.018 0.050 0.046 0.063 0.027 0.011 0.080 0.025 0.159 0.041l-0.007 0.070c-0.101-0.005-0.211-0.007-0.33-0.007s-0.229 0.002-0.33 0.007l-0.007-0.070c0.082-0.016 0.137-0.031 0.166-0.043s0.045-0.033 0.048-0.060c0.013-0.095 0.019-0.267 0.019-0.516 0-0.403-0.005-0.655-0.014-0.754l-0.005-0.048c-0.005-0.043-0.030-0.065-0.075-0.065-0.161 0-0.27 0.018-0.328 0.053s-0.108 0.119-0.149 0.251l-0.065-0.029c0.019-0.109 0.029-0.227 0.029-0.354v-0.036zM23.385 27.187c-0.101-0.005-0.201-0.007-0.299-0.007-0.096 0-0.195 0.002-0.296 0.007l-0.007-0.070c0.074-0.014 0.126-0.030 0.157-0.046 0.031-0.018 0.051-0.042 0.060-0.072l0.48-1.468 0.21-0.024 0.562 1.506c0.011 0.027 0.030 0.048 0.055 0.063 0.027 0.013 0.077 0.026 0.149 0.041l-0.007 0.070c-0.101-0.005-0.211-0.007-0.33-0.007s-0.229 0.002-0.33 0.007l-0.007-0.070c0.114-0.023 0.18-0.043 0.198-0.063 0.010-0.008 0.014-0.016 0.014-0.024 0-0.010-0.044-0.154-0.133-0.434h-0.545l-0.13 0.429c0 0.021 0.016 0.038 0.048 0.051s0.085 0.026 0.159 0.041l-0.007 0.070zM23.578 25.758h-0.010c-0.011 0.039-0.026 0.085-0.043 0.14-0.016 0.053-0.041 0.137-0.075 0.251-0.034 0.112-0.067 0.225-0.101 0.337h0.472l-0.243-0.728zM24.341 25.515c0.132 0.010 0.371 0.014 0.718 0.014s0.586-0.005 0.718-0.014v0.036c0 0.127 0.010 0.245 0.029 0.354l-0.065 0.029c-0.042-0.132-0.092-0.215-0.149-0.251s-0.167-0.053-0.328-0.053c-0.048 0-0.075 0.022-0.080 0.065-0.013 0.095-0.019 0.267-0.019 0.516 0 0.403 0.005 0.654 0.014 0.752l0.005 0.051c0.003 0.029 0.018 0.050 0.046 0.063 0.027 0.011 0.080 0.025 0.159 0.041l-0.007 0.070c-0.101-0.005-0.211-0.007-0.33-0.007s-0.229 0.002-0.33 0.007l-0.007-0.070c0.082-0.016 0.137-0.031 0.166-0.043s0.045-0.033 0.048-0.060c0.013-0.095 0.019-0.267 0.019-0.516 0-0.403-0.005-0.655-0.014-0.754l-0.005-0.048c-0.005-0.043-0.030-0.065-0.075-0.065-0.161 0-0.27 0.018-0.328 0.053s-0.108 0.119-0.149 0.251l-0.065-0.029c0.019-0.109 0.029-0.227 0.029-0.354v-0.036zM25.888 25.515c0.132 0.010 0.371 0.014 0.718 0.014s0.586-0.005 0.718-0.014v0.036c0 0.127 0.010 0.245 0.029 0.354l-0.065 0.029c-0.042-0.132-0.092-0.215-0.149-0.251s-0.167-0.053-0.328-0.053c-0.048 0-0.075 0.022-0.080 0.065-0.013 0.095-0.019 0.267-0.019 0.516 0 0.403 0.005 0.654 0.014 0.752l0.005 0.051c0.003 0.029 0.018 0.050 0.046 0.063 0.027 0.011 0.080 0.025 0.159 0.041l-0.007 0.070c-0.101-0.005-0.211-0.007-0.33-0.007s-0.229 0.002-0.33 0.007l-0.007-0.070c0.082-0.016 0.137-0.031 0.166-0.043s0.045-0.033 0.048-0.060c0.013-0.095 0.019-0.267 0.019-0.516 0-0.403-0.005-0.655-0.014-0.754l-0.005-0.048c-0.005-0.043-0.030-0.065-0.075-0.065-0.161 0-0.27 0.018-0.328 0.053s-0.108 0.119-0.149 0.251l-0.065-0.029c0.019-0.109 0.029-0.227 0.029-0.354v-0.036zM28.338 25.613c-0.093 0-0.176 0.018-0.248 0.055s-0.129 0.083-0.171 0.137c-0.042 0.055-0.076 0.116-0.101 0.186-0.045 0.116-0.067 0.228-0.067 0.337s0.010 0.208 0.029 0.296c0.019 0.087 0.050 0.167 0.092 0.241s0.1 0.132 0.176 0.174c0.076 0.042 0.16 0.063 0.253 0.063 0.095 0 0.177-0.016 0.246-0.048s0.125-0.072 0.166-0.12c0.043-0.050 0.080-0.106 0.108-0.169 0.051-0.111 0.079-0.223 0.082-0.337 0-0.543-0.188-0.815-0.564-0.815zM28.952 26.929c-0.067 0.088-0.159 0.159-0.275 0.212-0.116 0.051-0.25 0.077-0.402 0.077-0.264 0-0.459-0.071-0.588-0.212-0.127-0.143-0.19-0.337-0.19-0.583 0-0.247 0.067-0.459 0.202-0.636 0.067-0.088 0.159-0.158 0.275-0.21 0.116-0.053 0.25-0.080 0.402-0.080 0.264 0 0.459 0.071 0.586 0.212 0.129 0.141 0.193 0.335 0.193 0.581s-0.067 0.459-0.202 0.639zM30.233 25.613c-0.093 0-0.176 0.018-0.248 0.055s-0.129 0.083-0.171 0.137c-0.042 0.055-0.076 0.116-0.101 0.186-0.045 0.116-0.067 0.228-0.067 0.337s0.010 0.208 0.029 0.296c0.019 0.087 0.050 0.167 0.092 0.241s0.1 0.132 0.176 0.174c0.076 0.042 0.16 0.063 0.253 0.063 0.095 0 0.177-0.016 0.246-0.048s0.125-0.072 0.166-0.12c0.043-0.050 0.080-0.106 0.108-0.169 0.051-0.111 0.079-0.223 0.082-0.337 0-0.543-0.188-0.815-0.564-0.815zM30.847 26.929c-0.067 0.088-0.159 0.159-0.275 0.212-0.116 0.051-0.25 0.077-0.402 0.077-0.264 0-0.459-0.071-0.588-0.212-0.127-0.143-0.19-0.337-0.19-0.583 0-0.247 0.067-0.459 0.202-0.636 0.067-0.088 0.159-0.158 0.275-0.21 0.116-0.053 0.25-0.080 0.402-0.080 0.264 0 0.459 0.071 0.586 0.212 0.129 0.141 0.193 0.335 0.193 0.581s-0.067 0.459-0.202 0.639z"></path>
<path d="M18.112 27.609c0.088 0.006 0.247 0.010 0.479 0.010s0.391-0.003 0.479-0.010v0.024c0 0.085 0.006 0.163 0.019 0.236l-0.043 0.019c-0.028-0.088-0.061-0.144-0.1-0.167s-0.111-0.035-0.218-0.035c-0.032 0-0.050 0.014-0.053 0.043-0.009 0.063-0.013 0.178-0.013 0.344 0 0.269 0.003 0.436 0.010 0.501l0.003 0.034c0.002 0.019 0.012 0.033 0.031 0.042 0.018 0.008 0.054 0.017 0.106 0.027l-0.005 0.047c-0.067-0.003-0.141-0.005-0.22-0.005s-0.153 0.002-0.22 0.005l-0.005-0.047c0.055-0.011 0.092-0.020 0.111-0.029s0.030-0.022 0.032-0.040c0.009-0.063 0.013-0.178 0.013-0.344 0-0.269-0.003-0.436-0.010-0.503l-0.003-0.032c-0.003-0.029-0.020-0.043-0.050-0.043-0.107 0-0.18 0.012-0.218 0.035s-0.072 0.079-0.1 0.167l-0.043-0.019c0.013-0.073 0.019-0.152 0.019-0.236v-0.024zM19.746 27.675c-0.062 0-0.117 0.012-0.166 0.037s-0.086 0.055-0.114 0.092c-0.028 0.036-0.050 0.078-0.067 0.124-0.030 0.077-0.045 0.152-0.045 0.225s0.006 0.139 0.019 0.198c0.013 0.058 0.033 0.111 0.061 0.161s0.067 0.088 0.117 0.116c0.050 0.028 0.107 0.042 0.169 0.042 0.063 0 0.118-0.011 0.164-0.032s0.083-0.048 0.111-0.080c0.029-0.033 0.053-0.071 0.072-0.112 0.034-0.074 0.052-0.149 0.055-0.225 0-0.362-0.125-0.543-0.376-0.543zM20.155 28.553c-0.045 0.059-0.106 0.106-0.183 0.141-0.077 0.034-0.167 0.051-0.268 0.051-0.176 0-0.306-0.047-0.392-0.141-0.085-0.095-0.127-0.225-0.127-0.389 0-0.165 0.045-0.306 0.135-0.424 0.045-0.059 0.106-0.105 0.183-0.14 0.077-0.035 0.167-0.053 0.268-0.053 0.176 0 0.306 0.047 0.39 0.141 0.086 0.094 0.129 0.223 0.129 0.387s-0.045 0.306-0.135 0.426zM21.425 28.66c0.118 0 0.213-0.019 0.286-0.058l-0.011-0.26c-0.002-0.019-0.012-0.033-0.029-0.040-0.017-0.009-0.051-0.018-0.103-0.029l0.005-0.047c0.067 0.003 0.131 0.005 0.19 0.005 0.060 0 0.124-0.002 0.191-0.005l0.005 0.047c-0.016 0.003-0.029 0.006-0.040 0.010-0.010 0.003-0.018 0.006-0.024 0.008-0.006 0.001-0.011 0.004-0.014 0.010s-0.005 0.009-0.006 0.010c-0.002 0.005-0.003 0.016-0.003 0.032l-0.011 0.289c-0.169 0.072-0.315 0.108-0.439 0.108-0.176 0-0.315-0.048-0.418-0.143-0.103-0.096-0.154-0.234-0.154-0.413 0-0.105 0.022-0.2 0.066-0.286 0.045-0.087 0.113-0.157 0.204-0.21 0.092-0.055 0.2-0.082 0.325-0.082 0.051 0 0.109 0.004 0.172 0.013 0.063 0.008 0.107 0.011 0.13 0.011s0.049-0.003 0.076-0.010v0.024c0 0.078 0.006 0.154 0.019 0.227l-0.045 0.019c-0.046-0.14-0.166-0.21-0.358-0.21-0.118 0-0.217 0.041-0.299 0.122-0.080 0.081-0.12 0.2-0.12 0.355 0 0.131 0.031 0.244 0.092 0.341 0.031 0.049 0.074 0.089 0.129 0.119s0.117 0.045 0.188 0.045zM22.63 27.675c-0.062 0-0.117 0.012-0.166 0.037s-0.086 0.055-0.114 0.092c-0.028 0.036-0.050 0.078-0.067 0.124-0.030 0.077-0.045 0.152-0.045 0.225s0.006 0.139 0.019 0.198c0.013 0.058 0.033 0.111 0.061 0.161s0.067 0.088 0.117 0.116c0.050 0.028 0.107 0.042 0.169 0.042 0.063 0 0.118-0.011 0.164-0.032s0.083-0.048 0.111-0.080c0.029-0.033 0.053-0.071 0.072-0.112 0.034-0.074 0.052-0.149 0.055-0.225 0-0.362-0.125-0.543-0.376-0.543zM23.039 28.553c-0.045 0.059-0.106 0.106-0.183 0.141-0.077 0.034-0.167 0.051-0.268 0.051-0.176 0-0.306-0.047-0.392-0.141-0.085-0.095-0.127-0.225-0.127-0.389 0-0.165 0.045-0.306 0.135-0.424 0.045-0.059 0.106-0.105 0.183-0.14 0.077-0.035 0.167-0.053 0.268-0.053 0.176 0 0.306 0.047 0.39 0.141 0.086 0.094 0.129 0.223 0.129 0.387s-0.045 0.306-0.135 0.426z"></path>
</symbol>

<symbol id="icon-down-arrow" viewBox="0 0 32 32">
<path d="M28.226 8l1.774 1.576-14 14.424-14-14.424 1.774-1.576 12.226 12.596z"></path>
</symbol>

<symbol id="icon-down-up" viewBox="0 0 32 32">
<path d="M28.226 24l1.774-1.576-14-14.424-14 14.424 1.774 1.576 12.226-12.596z"></path>
</symbol>

<symbol id="icon-burger-menu" viewBox="0 0 32 32">
<path d="M1.333 14.667h29.333v2.667h-29.333v-2.667z"></path>
<path d="M1.333 6.667h29.333v2.667h-29.333v-2.667z"></path>
<path d="M1.333 22.667h29.333v2.667h-29.333v-2.667z"></path>
</symbol>

<symbol id="icon-closeBtn" viewBox="0 0 32 32">
<path d="M25.609 8.276c0.232-0.24 0.374-0.566 0.374-0.926 0-0.736-0.597-1.333-1.333-1.333-0.36 0-0.687 0.143-0.927 0.375l-7.724 7.724-7.724-7.724c-0.24-0.232-0.566-0.374-0.926-0.374-0.736 0-1.333 0.597-1.333 1.333 0 0.36 0.143 0.687 0.375 0.927l7.724 7.724-7.724 7.724c-0.251 0.243-0.407 0.583-0.407 0.959 0 0.736 0.597 1.333 1.333 1.333 0.376 0 0.716-0.156 0.959-0.407l7.724-7.724 7.724 7.724c0.24 0.232 0.566 0.374 0.926 0.374 0.736 0 1.333-0.597 1.333-1.333 0-0.36-0.143-0.687-0.375-0.927l-7.724-7.724 7.724-7.724z"></path>
</symbol>
</defs>
</svg>
